<svg width="360" height="70" viewBox="0 0 360 70" fill="none" xmlns="http://www.w3.org/2000/svg">
    <path d="M210.394 17.3939L210.384 17.3843C204.349 27.9096 193.003 35 180 35C167.058 35 155.757 27.9761 149.701 17.5325L149.698 17.5348C143.699 7.13668 132.508 0.111404 119.666 0.00131273L119.667 0H0V70H360V0H241.038L241.038 0.00210714C240.909 0.000703585 240.779 0 240.65 0C227.739 0 216.461 6.99092 210.394 17.3939Z" fill="#FFFBFE"/>
    <path d="M210.394 17.3939L210.384 17.3843C204.349 27.9096 193.003 35 180 35C167.058 35 155.757 27.9761 149.701 17.5325L149.698 17.5348C143.699 7.13668 132.508 0.111404 119.666 0.00131273L119.667 0H0V70H360V0H241.038L241.038 0.00210714C240.909 0.000703585 240.779 0 240.65 0C227.739 0 216.461 6.99092 210.394 17.3939Z" fill="#6750A4" fill-opacity="0.08"/>
</svg>
